#!OML:ASF X:\für Bonn\!DataBase\2005_08_11_Bastian_Final\c3d\Bastian.ASF
:FULLY-SPECIFIED
:DEGREES
121
root -1.44534 15.5907 2.38776 173.412 -3.25356 -174.679
lowerback 28.0216 -0.217999 2.02609
upperback 6.63371 -1.20558 1.30855
thorax -8.04386 -1.27973 0.792875
lowerneck -12.1311 -7.20452 -3.46846
upperneck -10.6865 -7.14534 13.2076
head -0.542596 -2.80126 4.31036
rclavicle 7.45443e-015 -1.39149e-014
rhumerus 77.882 18.2856 13.2546
rradius 38.9946
rwrist -66.5207
rhand -50.8324 -7.4891
rfingers 7.12502
rthumb -23.3878 -36.088
lclavicle 7.45443e-015 -1.39149e-014
lhumerus 76.6075 -20.4953 -34.2419
lradius 31.8521
lwrist 30.5953
lhand -48.4759 27.7073
lfingers 7.12502
lthumb -21.1256 56.5764
rfemur -26.9746 -2.00405 27.7238
rtibia 70.536
rfoot -26.7417 -10.8892
rtoes -3.99025
lfemur -27.3982 0.975821 -14.5875
ltibia 71.2136
lfoot -25.8344 -5.72272
ltoes -11.5144
122
root -1.44969 15.7639 2.37327 173.682 -3.23051 -174.73
lowerback 27.4602 -0.223074 1.95861
upperback 6.5716 -1.19877 1.29078
thorax -7.83738 -1.25572 0.792658
lowerneck -12.2111 -7.18583 -3.40956
upperneck -10.3263 -7.21624 12.8429
head -0.547989 -2.82621 4.60348
rclavicle -8.64713e-015 1.94809e-014
rhumerus 77.8996 18.7372 12.9008
rradius 38.9202
rwrist -65.7643
rhand -50.781 -7.68799
rfingers 7.12502
rthumb -23.3386 -36.2932
lclavicle -8.64713e-015 1.94809e-014
lhumerus 76.4998 -20.7819 -33.0241
lradius 31.7294
lwrist 30.2109
lhand -48.3303 27.2187
lfingers 7.12502
lthumb -20.9858 56.1034
rfemur -25.7672 -1.90039 27.6132
rtibia 67.9615
rfoot -26.2197 -10.7463
rtoes -3.56676
lfemur -26.1891 0.814388 -14.6863
ltibia 68.5435
lfoot -25.253 -5.42676
ltoes -11.4324
123
root -1.45414 15.9279 2.35592 173.917 -3.23423 -174.776
lowerback 26.8703 -0.239011 1.88274
upperback 6.52012 -1.20901 1.29552
thorax -7.60275 -1.24075 0.826991
lowerneck -12.1401 -7.16948 -3.45847
upperneck -10.1933 -7.22575 12.8521
head -0.512189 -2.83883 4.61481
rclavicle -3.08116e-015 -1.98785e-015
rhumerus 77.9601 19.2056 12.6658
rradius 38.8608
rwrist -65.0308
rhand -50.7989 -7.87558
rfingers 7.12502
rthumb -23.3557 -36.4786
lclavicle -3.08116e-015 -1.98785e-015
lhumerus 76.3429 -21.135 -31.6501
lradius 31.5841
lwrist 29.6914
lhand -48.1261 26.7559
lfingers 7.12502
lthumb -20.7895 55.6621
rfemur -24.5416 -1.86048 27.5079
rtibia 65.4387
rfoot -25.7066 -10.6186
rtoes -3.35208
lfemur -24.9668 0.604265 -14.7792
ltibia 65.9124
lfoot -24.629 -5.12205
ltoes -11.1738
124
root -1.45895 16.0841 2.33651 174.169 -3.23683 -174.817
lowerback 26.2108 -0.256652 1.83172
upperback 6.48197 -1.21758 1.2802
thorax -7.31753 -1.22524 0.821891
lowerneck -12.1018 -7.15578 -3.36794
upperneck -10.0319 -7.26418 12.7376
head -0.47125 -2.87076 4.55096
rclavicle -1.16289e-014 5.1684e-015
rhumerus 77.9671 19.6855 12.4022
rradius 38.819
rwrist -64.3279
rhand -50.8593 -7.96204
rfingers 7.12502
rthumb -23.4136 -36.5577
lclavicle -1.16289e-014 5.1684e-015
lhumerus 76.209 -21.4702 -30.3289
lradius 31.451
lwrist 29.2655
lhand -47.9077 26.1816
lfingers 7.12502
lthumb -20.5797 55.1107
rfemur -23.3789 -1.78767 27.4122
rtibia 62.9992
rfoot -25.2218 -10.4792
rtoes -2.96148
lfemur -23.7865 0.417147 -14.8627
ltibia 63.3141
lfoot -23.9263 -4.8303
ltoes -10.974
125
root -1.46341 16.2344 2.3148 174.415 -3.23965 -174.864
lowerback 25.5265 -0.274361 1.75226
upperback 6.43352 -1.22927 1.28529
thorax -7.02891 -1.21006 0.856068
lowerneck -11.8977 -7.13228 -3.36969
upperneck -9.95941 -7.27308 12.6665
head -0.484404 -2.89388 4.52902
rclavicle -9.83984e-015 2.0276e-014
rhumerus 78.056 20.1833 12.3907
rradius 38.8323
rwrist -63.9046
rhand -51.0174 -7.92634
rfingers 7.12502
rthumb -23.5653 -36.5026
lclavicle -9.83984e-015 2.0276e-014
lhumerus 76.0167 -21.8767 -28.8498
lradius 31.2611
lwrist 28.6082
lhand -47.634 25.6392
lfingers 7.12502
lthumb -20.3167 54.5965
rfemur -22.2601 -1.70542 27.3148
rtibia 60.6593
rfoot -24.7529 -10.3697
rtoes -2.5911
lfemur -22.5881 0.251302 -14.9484
ltibia 60.725
lfoot -23.1619 -4.56261
ltoes -10.7868
126
root -1.46768 16.3803 2.2913 174.644 -3.24079 -174.932
lowerback 24.8143 -0.285598 1.6696
upperback 6.40759 -1.23939 1.26375
thorax -6.69996 -1.19575 0.861121
lowerneck -11.735 -7.10515 -3.29192
upperneck -9.85481 -7.28843 12.5612
head -0.48462 -2.92034 4.47728
rclavicle 1.2921e-014 -5.56597e-015
rhumerus 78.1257 20.6723 12.433
rradius 38.8756
rwrist -63.5803
rhand -51.2142 -7.83412
rfingers 7.12502
rthumb -23.754 -36.3859
lclavicle 1.2921e-014 -5.56597e-015
lhumerus 75.8285 -22.2599 -27.3978
lradius 31.0828
lwrist 27.8919
lhand -47.3228 25.1652
lfingers 7.12502
lthumb -20.0176 54.1541
rfemur -21.1903 -1.66507 27.1935
rtibia 58.4352
rfoot -24.2894 -10.2257
rtoes -2.20329
lfemur -21.3784 0.0574978 -15.0528
ltibia 58.1576
lfoot -22.3374 -4.28772
ltoes -10.3938
127
root -1.47182 16.5199 2.26539 174.887 -3.23338 -175.048
lowerback 24.0596 -0.287714 1.52281
upperback 6.37193 -1.24855 1.24598
thorax -6.35764 -1.17914 0.905758
lowerneck -11.5309 -7.0827 -3.30286
upperneck -9.74941 -7.30286 12.5043
head -0.485362 -2.946 4.46144
rclavicle -1.35174e-014 3.97569e-016
rhumerus 78.2113 21.1923 12.5612
rradius 38.9728
rwrist -63.4514
rhand -51.4495 -7.58493
rfingers 7.12502
rthumb -23.9797 -36.1073
lclavicle -1.35174e-014 3.97569e-016
lhumerus 75.6686 -22.6964 -26.1596
lradius 30.9668
lwrist 27.323
lhand -47.1255 24.7871
lfingers 7.12502
lthumb -19.8279 53.7957
rfemur -20.2062 -1.60782 27.0219
rtibia 56.3461
rfoot -23.8652 -10.0766
rtoes -1.75189
lfemur -20.1821 -0.110293 -15.2104
ltibia 55.6163
lfoot -21.495 -4.01729
ltoes -10.0321
